<?xml version="1.0" encoding="iso-8859-1"?>
<!-- Generator: Adobe Illustrator 16.0.0, SVG Export Plug-In . SVG Version: 6.00 Build 0)  -->
<!DOCTYPE svg PUBLIC "-//W3C//DTD SVG 1.1//EN" "http://www.w3.org/Graphics/SVG/1.1/DTD/svg11.dtd">
<svg version="1.1" id="Capa_1" xmlns="http://www.w3.org/2000/svg" xmlns:xlink="http://www.w3.org/1999/xlink" x="0px" y="0px"
	 width="37.25px" height="37.25px" viewBox="0 0 37.25 37.25" style="enable-background:new 0 0 37.25 37.25;" xml:space="preserve"
	>
<g>
	<path   fill="#fff" d="M11.612,28.643c-0.172-0.101-0.424-0.191-0.752-0.275c0.306-0.104,0.553-0.232,0.738-0.393
		c0.188-0.162,0.328-0.347,0.426-0.552c0.102-0.207,0.151-0.426,0.151-0.657c0-0.316-0.094-0.607-0.28-0.875
		c-0.188-0.269-0.455-0.472-0.805-0.611c-0.134-0.055-0.294-0.098-0.47-0.131v-1.234H9.436v1.15H8.672v-1.15H7.487v1.15H5.679v0.969
		h0.273c0.186,0,0.311,0.016,0.375,0.051c0.064,0.033,0.111,0.078,0.139,0.137c0.027,0.055,0.04,0.188,0.04,0.396v3.902
		c0,0.203-0.013,0.334-0.04,0.393c-0.027,0.059-0.074,0.104-0.139,0.137c-0.064,0.031-0.189,0.047-0.375,0.047H5.679v0.967h1.809
		v1.152h1.185v-1.152h0.675c0.029,0,0.06,0,0.088,0v1.152h1.185v-1.25c0.2-0.037,0.375-0.088,0.522-0.146
		c0.409-0.161,0.727-0.399,0.949-0.715c0.227-0.312,0.336-0.653,0.336-1.024c0-0.312-0.072-0.595-0.221-0.847
		C12.063,28.979,11.864,28.782,11.612,28.643z M8.243,26.189h0.767c0.448,0,0.762,0.029,0.936,0.084
		c0.173,0.058,0.307,0.148,0.396,0.277c0.094,0.133,0.139,0.291,0.139,0.475c0,0.177-0.049,0.332-0.146,0.47
		c-0.099,0.135-0.242,0.235-0.435,0.303C9.708,27.866,9.411,27.9,9.007,27.9H8.241L8.243,26.189L8.243,26.189z M10.41,30.52
		c-0.139,0.172-0.303,0.287-0.499,0.344c-0.194,0.055-0.44,0.082-0.737,0.082H8.663c-0.17,0-0.274-0.01-0.313-0.027
		s-0.064-0.051-0.082-0.096c-0.013-0.039-0.021-0.164-0.023-0.381v-1.515h0.904c0.399,0,0.692,0.037,0.888,0.109
		c0.192,0.073,0.34,0.182,0.435,0.328c0.098,0.143,0.147,0.315,0.147,0.524C10.617,30.137,10.547,30.343,10.41,30.52z
		 M33.297,19.507c-0.292-0.469-0.908-0.613-1.378-0.317l-4.76,2.977c-0.469,0.293-0.61,0.91-0.317,1.379s0.908,0.611,1.378,0.316
		l2.718-1.699c-1.441,4.962-5.776,8.622-11.021,9.104c-0.785,0.071-1.564,0.047-2.341-0.023c0.081-0.244,0.151-0.492,0.212-0.748
		c0.535-2.277,0.152-4.627-1.079-6.617s-3.165-3.381-5.44-3.916c-0.664-0.156-1.343-0.236-2.018-0.236
		c-4.079,0-7.583,2.777-8.521,6.756c-0.535,2.277-0.151,4.627,1.08,6.617c1.23,1.99,3.164,3.381,5.44,3.916
		c0.662,0.156,1.341,0.236,2.017,0.236c3.084,0,5.836-1.59,7.402-4.082c0.688,0.098,1.383,0.15,2.081,0.15
		c0.448,0,0.897-0.021,1.347-0.062c6.108-0.561,11.149-4.842,12.79-10.637l1.694,2.709c0.188,0.303,0.516,0.469,0.849,0.469
		c0.181,0,0.364-0.049,0.529-0.151c0.469-0.293,0.609-0.91,0.316-1.377L33.297,19.507z M9.266,35.247
		c-0.521,0-1.045-0.062-1.559-0.185c-1.757-0.414-3.248-1.485-4.199-3.021c-0.949-1.535-1.246-3.351-0.832-5.106
		c0.725-3.068,3.426-5.213,6.573-5.213c0.521,0,1.045,0.062,1.56,0.184c1.756,0.412,3.248,1.484,4.198,3.021
		c0.95,1.535,1.246,3.351,0.832,5.105C15.114,33.102,12.412,35.247,9.266,35.247z M30.004,0.232C29.343,0.078,28.667,0,27.993,0
		c-3.063,0-5.803,1.564-7.374,4.027c-1.054-0.137-2.125-0.176-3.203-0.079C11.336,4.507,6.313,8.753,4.649,14.509l-1.601-2.727
		c-0.278-0.478-0.891-0.638-1.368-0.356c-0.476,0.279-0.635,0.892-0.355,1.367l2.84,4.843c0.186,0.316,0.52,0.493,0.863,0.493
		c0.172,0,0.346-0.044,0.505-0.138l4.844-2.842c0.478-0.278,0.636-0.892,0.356-1.367c-0.28-0.477-0.893-0.639-1.368-0.355
		l-2.798,1.641c1.437-4.975,5.775-8.646,11.029-9.127c0.705-0.064,1.408-0.049,2.105,0.005c-0.091,0.265-0.171,0.534-0.236,0.811
		c-0.536,2.276-0.153,4.627,1.079,6.617c1.23,1.99,3.164,3.382,5.441,3.919c0.662,0.155,1.34,0.234,2.015,0.234
		c4.083,0,7.588-2.778,8.521-6.756C37.633,6.07,34.708,1.343,30.004,0.232z M34.578,10.312c-0.722,3.068-3.427,5.213-6.575,5.213
		c-0.521,0-1.044-0.062-1.557-0.182c-1.758-0.414-3.25-1.488-4.199-3.023c-0.95-1.536-1.246-3.35-0.831-5.105
		C22.141,4.145,24.844,2,27.993,2c0.521,0,1.042,0.061,1.553,0.182C33.176,3.037,35.434,6.685,34.578,10.312z M27.58,10.998h3.203
		v1.486h-5.472v-0.971c0.638-0.265,1.344-0.947,1.344-1.764c0-0.168-0.012-0.312-0.034-0.479h-1.177V8.035h0.959
		c-0.06-0.3-0.096-0.647-0.096-0.972c0-1.512,1.104-2.508,2.711-2.508c0.66,0,1.15,0.145,1.414,0.289l-0.3,1.379
		c-0.229-0.133-0.563-0.217-1.007-0.217c-0.853,0-1.115,0.553-1.115,1.129c0,0.312,0.035,0.6,0.107,0.898h1.645v1.234h-1.488
		c0.014,0.301-0.012,0.576-0.106,0.853c-0.107,0.3-0.3,0.601-0.588,0.853V10.998z"/>
</g>
<g>
</g>
<g>
</g>
<g>
</g>
<g>
</g>
<g>
</g>
<g>
</g>
<g>
</g>
<g>
</g>
<g>
</g>
<g>
</g>
<g>
</g>
<g>
</g>
<g>
</g>
<g>
</g>
<g>
</g>
</svg>
