<svg width="602" height="1033" xmlns="http://www.w3.org/2000/svg"><g fill-rule="nonzero" fill="none"><g stroke="#FFF" stroke-width="50"><path d="M84.653 1006.191c-31.693 0-57.392-25.692-57.392-57.386V85.095c0-31.694 25.699-57.393 57.392-57.393 31.694 0 57.393 25.7 57.393 57.393v863.71c0 31.694-25.699 57.386-57.393 57.386" fill="#CEDC21"/><path d="M84.69 1006.204c-21.478 0-42.062-12.1-51.89-32.789-13.584-28.637-1.393-62.874 27.245-76.465l346.074-164.243L50.612 470.798c-25.519-18.802-30.966-54.73-12.156-80.256 18.789-25.512 54.738-30.96 80.236-12.157l432.756 318.83a57.375 57.375 0 0123.086 51.703 57.38 57.38 0 01-32.526 46.345L109.26 1000.646c-7.942 3.77-16.321 5.558-24.569 5.558" fill="#51B13E"/><path d="M84.7 666.705c-17.617 0-35-8.081-46.248-23.35-18.803-25.525-13.362-61.454 12.164-80.25l355.5-261.915L60.048 136.94C31.411 123.356 19.22 89.126 32.804 60.488c13.598-28.637 47.835-40.842 76.452-27.237l432.756 205.376a57.396 57.396 0 0132.525 46.352 57.39 57.39 0 01-23.092 51.702L118.695 655.52c-10.25 7.547-22.178 11.186-33.995 11.186" fill="#CEDC21"/><path d="M142.044 395.587v242.725l164.651-121.307z" fill="#1E7A44"/><path fill="#FFF" d="M142.046 573.6H27.261V293.819h114.785z"/><path d="M84.653 27.705c-31.693 0-57.392 25.699-57.392 57.393v722.277h114.785V85.098c0-31.694-25.699-57.393-57.393-57.393" fill="#CEDC21"/></g><path d="M84.653 1006.191c-31.693 0-57.392-25.692-57.392-57.386V85.095c0-31.694 25.699-57.393 57.392-57.393 31.694 0 57.393 25.7 57.393 57.393v863.71c0 31.694-25.699 57.386-57.393 57.386" fill="#CEDC21"/><path d="M84.69 1006.204c-21.478 0-42.062-12.1-51.89-32.789-13.584-28.637-1.393-62.874 27.245-76.465l346.074-164.243L50.612 470.798c-25.519-18.802-30.966-54.73-12.156-80.256 18.789-25.512 54.738-30.96 80.236-12.157l432.756 318.83a57.375 57.375 0 0123.086 51.703 57.38 57.38 0 01-32.526 46.345L109.26 1000.646c-7.942 3.77-16.321 5.558-24.569 5.558" fill="#51B13E"/><path d="M84.7 666.705c-17.617 0-35-8.081-46.248-23.35-18.803-25.525-13.362-61.454 12.164-80.25l355.5-261.915L60.048 136.94C31.411 123.356 19.22 89.126 32.804 60.488c13.598-28.637 47.835-40.842 76.452-27.237l432.756 205.376a57.396 57.396 0 0132.525 46.352 57.39 57.39 0 01-23.092 51.702L118.695 655.52c-10.25 7.547-22.178 11.186-33.995 11.186" fill="#CEDC21"/><path d="M142.044 395.587v242.725l164.651-121.307z" fill="#1E7A44"/><path fill="#FFF" d="M142.046 573.6H27.261V293.819h114.785z"/><path d="M84.653 27.705c-31.693 0-57.392 25.699-57.392 57.393v722.277h114.785V85.098c0-31.694-25.699-57.393-57.393-57.393" fill="#CEDC21"/></g></svg>