<?xml version="1.0" encoding="iso-8859-1"?>
<!-- Generator: Adobe Illustrator 18.0.0, SVG Export Plug-In . SVG Version: 6.00 Build 0)  -->
<!DOCTYPE svg PUBLIC "-//W3C//DTD SVG 1.1//EN" "http://www.w3.org/Graphics/SVG/1.1/DTD/svg11.dtd">
<svg version="1.1" id="Capa_1" xmlns="http://www.w3.org/2000/svg" xmlns:xlink="http://www.w3.org/1999/xlink" x="0px" y="0px"
	 viewBox="0 0 460 460" style="enable-background:new 0 0 460 460;" xml:space="preserve">
	<path d="M72.878,167.167c0-52.638,42.869-95.295,95.295-95.295c50.775,0,92.476,39.965,95.156,90.158
		c7.497-7.38,17.774-11.943,29.1-11.943h42.911v-16.94c0-6.357-5.153-11.509-11.509-11.509H296.44
		c-1.574-4.435-3.368-8.766-5.376-12.975l19.369-19.369c4.495-4.495,4.495-11.782,0-16.277l-48.111-48.111
		c-4.495-4.495-11.782-4.495-16.276,0l-19.369,19.369c-4.21-2.008-8.54-3.801-12.975-5.376V11.509
		C213.702,5.153,208.549,0,202.193,0h-68.039c-6.356,0-11.509,5.153-11.509,11.509V38.9c-4.435,1.574-8.765,3.368-12.975,5.376
		L90.3,24.907c-4.495-4.495-11.782-4.495-16.276,0L25.913,73.017c-4.495,4.495-4.495,11.782,0,16.277l19.369,19.369
		c-2.008,4.209-3.801,8.54-5.376,12.975H12.516c-6.356,0-11.509,5.153-11.509,11.509v68.038c0,6.356,5.153,11.509,11.509,11.509
		h27.391c1.574,4.435,3.368,8.765,5.376,12.975L25.913,245.04c-4.495,4.495-4.495,11.782,0,16.276l48.111,48.111
		c4.495,4.495,11.782,4.495,16.276,0l19.369-19.369c4.21,2.008,8.54,3.801,12.975,5.376v27.391c0,6.356,5.153,11.509,11.509,11.509
		h14.927v-40.898c0-12.376,5.452-23.494,14.071-31.106C112.864,259.705,72.878,217.934,72.878,167.167z"/>
	<path d="M217.675,181.051c4.491-4.491,9.832-7.82,15.657-9.849c2.315-37.926-27.809-69.331-65.159-69.331
		c-36.061,0-65.295,29.234-65.295,65.295c0,36.909,30.668,66.782,68.05,65.225C175.007,222.359,176.894,221.832,217.675,181.051z"/>
	<path d="M447.484,281.926h-18.896c-1.478-4.248-3.192-8.386-5.134-12.393l13.361-13.361c4.495-4.495,4.495-11.782,0-16.277
		l-37.63-37.63c-2.247-2.247-5.193-3.371-8.138-3.371s-5.891,1.124-8.138,3.371l-13.361,13.361
		c-4.007-1.942-8.145-3.656-12.394-5.134v-18.896c0-6.356-5.153-11.509-11.509-11.509h-53.217c-6.356,0-11.509,5.153-11.509,11.509
		v18.896c-4.248,1.478-8.386,3.191-12.394,5.134l-13.361-13.361c-2.247-2.247-5.193-3.371-8.138-3.371
		c-2.945,0-5.891,1.124-8.138,3.371l-37.63,37.63c-4.495,4.495-4.495,11.782,0,16.277l13.361,13.361
		c-1.942,4.007-3.656,8.145-5.134,12.393H190.59c-6.356,0-11.509,5.153-11.509,11.509v53.217c0,6.356,5.153,11.509,11.509,11.509
		h18.896c1.478,4.248,3.191,8.386,5.134,12.393l-13.361,13.361c-4.495,4.495-4.495,11.782,0,16.277l37.63,37.63
		c2.247,2.247,5.193,3.371,8.138,3.371c2.945,0,5.891-1.124,8.138-3.371l13.361-13.361c4.007,1.942,8.145,3.656,12.394,5.134v18.896
		c0,6.357,5.153,11.509,11.509,11.509h53.217c6.356,0,11.509-5.153,11.509-11.509v-18.895c4.249-1.478,8.386-3.192,12.394-5.134
		l13.361,13.361c2.247,2.247,5.193,3.371,8.138,3.371s5.891-1.124,8.138-3.371l37.63-37.63c4.495-4.495,4.495-11.782,0-16.277
		l-13.361-13.361c1.942-4.007,3.655-8.145,5.134-12.393h18.896c6.356,0,11.509-5.153,11.509-11.509v-53.217
		C458.993,287.079,453.84,281.926,447.484,281.926z M319.037,404.71c-46.685,0-84.667-37.981-84.667-84.667
		s37.981-84.667,84.667-84.667c46.685,0,84.667,37.981,84.667,84.667S365.722,404.71,319.037,404.71z"/>
	<circle cx="319.037" cy="320.044" r="54.667"/>
</svg>
